<svg xmlns="http://www.w3.org/2000/svg" xmlns:xlink="http://www.w3.org/1999/xlink" id="Layer_1" x="0" y="0" version="1.1" viewBox="0 0 80 80" style="enable-background:new 0 0 80 80" xml:space="preserve"><style type="text/css">.st0{fill:#39314c}.st1{fill:#fff}.st8{clip-path:url(#SVGID_2_)}.st10{clip-path:url(#SVGID_6_)}.st16{clip-path:url(#SVGID_10_)}.st19{clip-path:url(#SVGID_14_)}</style><path d="M40,62.1c21,0,38.1-19.2,38.1-21.2c0-2.3-17-21.2-38.1-21.2S1.9,38.6,1.9,40.9C1.9,42.9,19,62.1,40,62.1z" class="st0"/><circle cx="40" cy="40.9" r="17.2" class="st1"/><g><defs><path id="SVGID_1_" d="M-49.9-359.4c-0.9,0-1.5,0.7-1.5,1.5v20.5c0,0.9,0.7,1.5,1.5,1.5c0.9,0,1.5-0.7,1.5-1.5v-20.5 C-48.3-358.7-49-359.4-49.9-359.4z"/></defs><clipPath id="SVGID_2_"><use xlink:href="#SVGID_1_" style="overflow:visible"/></clipPath><g class="st8"><defs><rect id="SVGID_3_" width="1366" height="1696" x="-771.7" y="-1099"/></defs><clipPath id="SVGID_4_"><use xlink:href="#SVGID_3_" style="overflow:visible"/></clipPath></g></g><g><defs><path id="SVGID_5_" d="M-49.9-333.1c-0.9,0-1.5,0.7-1.5,1.5v8.2c0,0.9,0.7,1.5,1.5,1.5c0.9,0,1.5-0.7,1.5-1.5v-8.2 C-48.3-332.4-49-333.1-49.9-333.1z"/></defs><clipPath id="SVGID_6_"><use xlink:href="#SVGID_5_" style="overflow:visible"/></clipPath><g class="st10"><defs><rect id="SVGID_7_" width="1366" height="1696" x="-771.7" y="-1099"/></defs><clipPath id="SVGID_8_"><use xlink:href="#SVGID_7_" style="overflow:visible"/></clipPath></g></g><g><defs><path id="SVGID_9_" d="M300.5-139.6c-1.6,0-3-1.3-3-3c0-1.6,1.3-3,3-3c1.6,0,3,1.3,3,3C303.5-140.9,302.2-139.6,300.5-139.6z M301-129.8h10.2c0.7,0,1.3-0.6,1.3-1.3c0-0.7-0.6-1.3-1.3-1.3H301c-4.9,0-8.9-4-8.9-8.9v-0.4c0-4.9,4-8.9,8.9-8.9 c4.9,0,8.9,4,8.9,8.9v0.9c0,1.1-0.9,1.9-1.9,1.9s-1.9-0.9-1.9-1.9v-1.8c0-3.1-2.5-5.5-5.5-5.5s-5.5,2.5-5.5,5.5 c0,3.1,2.5,5.5,5.5,5.5c1.4,0,2.7-0.5,3.6-1.4c0.8,1.3,2.2,2.1,3.8,2.1c2.5,0,4.5-2,4.5-4.5v-0.9c0-6.3-5.2-11.5-11.5-11.5 c-6.3,0-11.5,5.2-11.5,11.5v0.4C289.5-135,294.7-129.8,301-129.8z"/></defs><clipPath id="SVGID_10_"><use xlink:href="#SVGID_9_" style="overflow:visible"/></clipPath><g class="st16"><defs><rect id="SVGID_11_" width="1058.3" height="1313.9" x="-232.8" y="-914.3"/></defs><clipPath id="SVGID_12_"><use xlink:href="#SVGID_11_" style="overflow:visible"/></clipPath></g></g><g><g><defs><path id="SVGID_13_" d="M300.4-239.8c-1.6,0-3-1.3-3-3c0-1.6,1.3-3,3-3c1.6,0,3,1.3,3,3C303.3-241.2,302-239.8,300.4-239.8z M300.8-230.1h10.2c0.7,0,1.3-0.6,1.3-1.3c0-0.7-0.6-1.3-1.3-1.3h-10.2c-4.9,0-8.9-4-8.9-8.9v-0.4c0-4.9,4-8.9,8.9-8.9 s8.9,4,8.9,8.9v0.9c0,1.1-0.9,1.9-1.9,1.9s-1.9-0.9-1.9-1.9v-1.8c0-3.1-2.5-5.5-5.5-5.5s-5.5,2.5-5.5,5.5c0,3.1,2.5,5.5,5.5,5.5 c1.4,0,2.7-0.5,3.6-1.4c0.8,1.3,2.2,2.1,3.8,2.1c2.5,0,4.5-2,4.5-4.5v-0.9c0-6.3-5.2-11.5-11.5-11.5s-11.5,5.2-11.5,11.5v0.4 C289.3-235.2,294.5-230.1,300.8-230.1z"/></defs><clipPath id="SVGID_14_"><use xlink:href="#SVGID_13_" style="overflow:visible"/></clipPath><g class="st19"><defs><rect id="SVGID_15_" width="1058.3" height="1313.9" x="-232.9" y="-1014.6"/></defs><clipPath id="SVGID_16_"><use xlink:href="#SVGID_15_" style="overflow:visible"/></clipPath></g></g></g><circle cx="40" cy="40.9" r="7.9" class="st0"/><circle cx="45" cy="35.9" r="2.9" class="st1"/></svg>